<?xml version="1.0" encoding="utf-8"?>
<!-- Generator: Adobe Illustrator 25.1.0, SVG Export Plug-In . SVG Version: 6.00 Build 0)  -->
<svg version="1.1" id="Layer_1" xmlns="http://www.w3.org/2000/svg" xmlns:xlink="http://www.w3.org/1999/xlink" x="0px" y="0px"
	 viewBox="0 0 92.6 81" style="enable-background:new 0 0 92.6 81;" xml:space="preserve">
<style type="text/css">
	.st0{fill:#FFFFFF;}
</style>
<g>
	<path class="st0" d="M89.6,81H3c-1.1,0-2.1-0.6-2.6-1.5c-0.5-0.9-0.5-2.1,0-3l43.3-75C44.2,0.6,45.2,0,46.3,0
		c1.1,0,2.1,0.6,2.6,1.5l43.3,75c0.5,0.9,0.5,2.1,0,3C91.7,80.4,90.7,81,89.6,81z M8.2,75h76.2L46.3,9L8.2,75z"/>
</g>
<g>
	<path class="st0" d="M66.3,66.9L61.4,62c2-2.8,3.2-6.3,3.2-10c0-9.6-7.8-17.4-17.4-17.4c-9.6,0-17.4,7.8-17.4,17.4
		c0,9.6,7.8,17.4,17.4,17.4c3.7,0,7.2-1.2,10-3.2l4.9,4.9c0.6,0.6,1.3,0.9,2.1,0.9c0.8,0,1.5-0.3,2.1-0.9
		C67.5,69.9,67.5,68,66.3,66.9z M35.8,52c0-6.3,5.1-11.4,11.4-11.4c6.3,0,11.4,5.1,11.4,11.4c0,6.3-5.1,11.4-11.4,11.4
		C40.9,63.4,35.8,58.3,35.8,52z"/>
</g>
<g>
	<path class="st0" d="M47.2,55.9c-2.2,0-3.9-1.7-3.9-3.9s1.7-3.9,3.9-3.9c2.2,0,3.9,1.8,3.9,3.9S49.4,55.9,47.2,55.9z"/>
</g>
</svg>
