<?xml version="1.0" encoding="utf-8"?>
<!-- Generator: Adobe Illustrator 25.1.0, SVG Export Plug-In . SVG Version: 6.00 Build 0)  -->
<svg version="1.1" id="Layer_1" xmlns="http://www.w3.org/2000/svg" xmlns:xlink="http://www.w3.org/1999/xlink" x="0px" y="0px"
	 viewBox="0 0 299.7 81" style="enable-background:new 0 0 299.7 81;" xml:space="preserve">
<style type="text/css">
	.st0{fill:#FFFFFF;stroke:#000000;stroke-width:6;stroke-linecap:round;stroke-linejoin:round;stroke-miterlimit:10;}
	.st1{fill:none;stroke:#000000;stroke-width:6;stroke-linecap:round;stroke-linejoin:round;stroke-miterlimit:10;}
</style>
<polygon class="st0" points="46.3,3 3,78 89.6,78 "/>
<circle class="st0" cx="47.2" cy="52" r="14.4"/>
<line class="st1" x1="57.8" y1="62.6" x2="64.2" y2="69"/>
<circle class="st1" cx="47.2" cy="52" r="0.9"/>
<g>
	<path d="M105.4,57.4V27.2c0-1.7,1.3-3,3-3h8.2c0.3,0,3,0.1,5.9,1.4c4,2,6.3,5.7,6.3,10.6c0,0.3-0.1,3.1-1.4,5.9
		c-2,4-5.8,6.2-10.7,6.2h-5.2v9c0,1.7-1.3,3-3,3C106.7,60.4,105.4,59.1,105.4,57.4z M111.5,42.3h5.2c2.6,0,4.2-0.9,5.2-2.7
		c0.8-1.6,0.9-3.2,0.9-3.3c0-2.6-0.9-4.2-2.9-5.2c-1.6-0.8-3.2-0.8-3.2-0.8h-5.2V42.3z"/>
	<path d="M152,57.4c0,1.6-1.3,3-3,3c-1.2,0-2.2-0.7-2.7-1.7c-1.1,0.6-2.3,1-3.6,1.2c-0.4,0.1-1.7,0.4-3.3,0.4
		c-4.4,0-7.4-2.2-8.4-6.2c-0.2-0.6-0.2-1.1-0.2-1.7c0-1.4,0.5-2.8,1.3-4c1.2-1.6,3.7-3.4,9.3-3.6c0.8,0,1.5-0.1,2.3-0.1
		c0.6,0,1.2,0,2,0.1c-0.2-0.8-0.5-1.7-1-2c-0.8-0.4-1.7-0.6-2.6-0.6c-2,0-3.9,0.9-5,1.8c-0.6,0.5-1.2,0.7-1.9,0.7
		c-0.9,0-1.7-0.4-2.3-1.1c-0.5-0.6-0.7-1.2-0.7-1.9c0-0.9,0.4-1.8,1.1-2.3c2.1-1.7,4.6-2.8,7.4-3.1c0.5-0.1,0.9-0.1,1.3-0.1
		c2.1,0,4,0.5,5.6,1.3c4.1,2.3,4.3,7.8,4.3,8.3v8.1L152,57.4z M145.6,51c-0.4-0.1-0.9-0.1-1.8-0.1c-0.7,0-1.4,0-2.6,0.1
		c-2.4,0.1-3.7,0.7-4.1,1.2c-0.1,0.1-0.2,0.2-0.2,0.4c0,0.1,0.1,0.2,0.1,0.3c0.2,0.6,0.4,1.5,2.5,1.5c0.9,0,1.7-0.2,2-0.2
		c0.1-0.1,0.2-0.1,0.2-0.1c1.9-0.4,3.1-1.5,3.6-2.4L145.6,51z"/>
	<path d="M177.3,39.3v18.1c0,1.2-0.8,2.4-2,2.8c-0.4,0.2-0.7,0.2-1.1,0.2c-0.9,0-1.7-0.4-2.3-1.1l-9.7-11.7v9.8c0,1.7-1.3,3-3,3
		c-1.7,0-3-1.3-3-3V39.3c0-1.3,0.8-2.4,2-2.8c0.4-0.2,0.7-0.2,1.1-0.2c0.9,0,1.7,0.4,2.3,1.1l9.8,11.7v-9.7c0-1.7,1.3-3.1,3-3.1
		S177.3,37.6,177.3,39.3z"/>
	<path d="M219.4,49.1c0,7-5.7,11.3-10.6,11.3h-10.5c-1.7,0-3-1.3-3-3V27.2c0-1.7,1.3-3,3-3h8.3c0.3,0,2.5,0.1,4.7,1.2
		c3.3,1.7,5.1,4.7,5.1,8.6c0,2.2-0.6,4.1-1.6,5.7C217.7,41.7,219.4,45,219.4,49.1z M201.3,37.8h4.5c0.8,0,4.5-0.2,4.5-3.8
		c0-3.5-2.4-3.8-3.4-3.8c-0.3,0-0.4,0-0.4,0h-5.3V37.8z M213.3,49.1c0-1.9-1.2-5.3-4.9-5.3h-7.1v10.5h7.1c0.1,0,1.4-0.1,2.7-0.7
		C213.1,52.5,213.3,50.5,213.3,49.1z"/>
	<path d="M247.7,48.4c0,6.6-5.4,12-12.1,12c-6.6,0-12-5.4-12-12c0-6.7,5.4-12.1,12-12.1C242.2,36.3,247.7,41.7,247.7,48.4z
		 M241.6,48.4c0-3.4-2.7-6-6-6c-3.3,0-6,2.7-6,6c0,3.3,2.7,6,6,6C238.9,54.3,241.6,51.7,241.6,48.4z"/>
	<path d="M275.9,48.4c0,6.6-5.4,12-12.1,12c-6.6,0-12-5.4-12-12c0-6.7,5.4-12.1,12-12.1C270.5,36.3,275.9,41.7,275.9,48.4z
		 M269.9,48.4c0-3.4-2.7-6-6-6c-3.3,0-6,2.7-6,6c0,3.3,2.7,6,6,6C267.2,54.3,269.9,51.7,269.9,48.4z"/>
	<path d="M298.8,55.2c0.7,0.7,0.9,1.4,0.9,2.2s-0.3,1.6-0.9,2.1c-0.6,0.6-1.3,0.9-2.1,0.9c-0.8,0-1.6-0.3-2.1-0.9l-8.4-8.4v6.3
		c0,1.7-1.4,3-3,3s-3-1.3-3-3V27.2c0-1.7,1.3-3,3-3s3,1.3,3,3v18.4l8.4-8.4c0.6-0.6,1.3-0.8,2.1-0.8c0.8,0,1.5,0.3,2.1,0.8
		c0.6,0.6,0.9,1.4,0.9,2.2s-0.3,1.6-0.9,2.1l-6.9,6.9L298.8,55.2z"/>
</g>
</svg>
